{"title":"Mayweather vs Berto Official Weigh-Ins 480p WEB-DL x264 -={SPARR","uid":12402032,"size":296407300,"categoryP":"video","categoryS":"tv_shows","magnet":"?xt=urn:btih:c2b99755de4b438dfbf0582e437dc11824e0cba2&amp;dn=Mayweather+vs+Berto+Official+Weigh-Ins+480p+WEB-DL+x264+-%3D%7BSPARR&amp;tr=udp%3A%2F%2Ftracker.openbittorrent.com%3A80&amp;tr=udp%3A%2F%2Fopen.demonii.com%3A1337&amp;tr=udp%3A%2F%2Ftracker.coppersurfer.tk%3A6969&amp;tr=udp%3A%2F%2Fexodus.desync.com%3A6969","seeders":3,"leechers":0,"uploader":"SS132203","files":2,"time":1442041565,"description":"Mayweather vs Berto Official Weigh-Ins 480p WEB-DL x264 -={SPARROW}=-\n &lt;a href=&quot;\nhttp://imgsparrow.co/image/8Zd&quot; rel=&quot;nofollow&quot; target=&quot;_NEW&quot;&gt;\nhttp://imgsparrow.co/image/8Zd&lt;/a&gt;\n\nInfo : - \n\nFormat                      : MPEG-4\nFormat profile              : Base Media\nCodec ID                    : isom\nFile size                   : 283 MiB\nDuration                    : 37mn 26s\nOverall bit rate            : 1 055 Kbps\nWriting application         : Lavf56.25.101\n\nVideo\nID                          : 1\nFormat                      : AVC\nFormat/Info                 : Advanced Video Codec\nFormat profile              : &lt;a class=&quot;__cf_email__&quot; href=&quot;/cdn-cgi/l/email-protection&quot; data-cfemail=&quot;084569616648443b2639&quot;&gt;[email&amp;#160;protected]&lt;/a&gt;&lt;script data-cfhash='f9e31' type=&quot;text/javascript&quot;&gt;\n/* &lt;![CDATA[ */!function(){try{var t=&quot;currentScript&quot;in document?document.currentScript:function(){for(var t=document.getElementsByTagName(&quot;script&quot;),e=t.length;e--;)if(t[e].getAttribute(&quot;data-cfhash&quot;))return t[e]}();if(t&amp;&amp;t.previousSibling){var e,r,n,i,c=t.previousSibling,a=c.getAttribute(&quot;data-cfemail&quot;);if(a){for(e=&quot;&quot;,r=parseInt(a.substr(0,2),16),n=2;a.length-n;n+=2)i=parseInt(a.substr(n,2),16)^r,e+=String.fromCharCode(i);e=document.createTextNode(e),c.parentNode.replaceChild(e,c)}t.parentNode.removeChild(t);}}catch(u){}}()/* ]]&gt; */&lt;/script&gt;\nFormat settings, CABAC      : Yes\nFormat settings, ReFrames   : 3 frames\nCodec ID                    : avc1\nCodec ID/Info               : Advanced Video Coding\nDuration                    : 37mn 26s\nBit rate                    : 921 Kbps\nWidth                       : 854 pixels\nHeight                      : 480 pixels\nDisplay aspect ratio        : 16:9\nFrame rate mode             : Constant\nFrame rate                  : 30.000 fps\nColor space                 : YUV\nChroma subsampling          : 4:2:0\nBit depth                   : 8 bits\nScan type                   : Progressive\nBits/(Pixel*Frame)          : 0.075\nStream size                 : 247 MiB (87%)\n\nAudio\nID                          : 2\nFormat                      : AAC\nFormat/Info                 : Advanced Audio Codec\nFormat profile              : LC\nCodec ID                    : 40\nDuration                    : 37mn 26s\nBit rate mode               : Constant\nBit rate                    : 126 Kbps\nChannel(s)                  : 2 channels\nChannel positions           : Front: L R\nSampling rate               : 44.1 KHz\nCompression mode            : Lossy\nStream size                 : 33.6 MiB (12%)\n\nScreens : - \n &lt;a href=&quot;\nhttp://imgsparrow.co/image/8ad&quot; rel=&quot;nofollow&quot; target=&quot;_NEW&quot;&gt;\nhttp://imgsparrow.co/image/8ad&lt;/a&gt;\n &lt;a href=&quot;\nhttp://imgsparrow.co/image/8nG&quot; rel=&quot;nofollow&quot; target=&quot;_NEW&quot;&gt;\nhttp://imgsparrow.co/image/8nG&lt;/a&gt;","torrent":{"xt":"urn:btih:c2b99755de4b438dfbf0582e437dc11824e0cba2","amp;dn":"Mayweather+vs+Berto+Official+Weigh-Ins+480p+WEB-DL+x264+-%3D%7BSPARR","amp;tr":["udp%3A%2F%2Ftracker.openbittorrent.com%3A80","udp%3A%2F%2Fopen.demonii.com%3A1337","udp%3A%2F%2Ftracker.coppersurfer.tk%3A6969","udp%3A%2F%2Fexodus.desync.com%3A6969"],"infoHash":"c2b99755de4b438dfbf0582e437dc11824e0cba2","infoHashBuffer":{"type":"Buffer","data":[194,185,151,85,222,75,67,141,251,240,88,46,67,125,193,24,36,224,203,162]},"announce":[],"urlList":[]}}